<?xml version="1.0" encoding="UTF-8"?>
<!DOCTYPE svg PUBLIC "-//W3C//DTD SVG 1.1//EN" "http://www.w3.org/Graphics/SVG/1.1/DTD/svg11.dtd">
<svg xmlns="http://www.w3.org/2000/svg" version="1.1" width="500px" height="500px" style="shape-rendering:geometricPrecision; text-rendering:geometricPrecision; image-rendering:optimizeQuality; fill-rule:evenodd; clip-rule:evenodd" xmlns:xlink="http://www.w3.org/1999/xlink">
<g><path style="opacity:1" fill="#1a1b27" d="M -0.5,-0.5 C 160.833,-0.5 322.167,-0.5 483.5,-0.5C 459.999,0.780251 436.332,1.94692 412.5,3C 397.989,5.71115 383.322,7.54449 368.5,8.5C 368.5,9.5 368.5,10.5 368.5,11.5C 364.868,12.6145 359.202,12.7812 351.5,12C 337.368,16.0364 323.034,19.7031 308.5,23C 298.812,28.1751 288.812,32.8418 278.5,37C 271.087,43.5389 270.754,50.3722 277.5,57.5C 277.291,58.086 276.957,58.586 276.5,59C 268.154,59.3463 263.82,63.6797 263.5,72C 264.704,74.9975 265.537,78.1641 266,81.5C 267.883,84.0244 270.383,85.3577 273.5,85.5C 271.055,92.0661 273.388,95.3994 280.5,95.5C 278.78,96.9197 276.946,98.253 275,99.5C 274.67,102.489 273.836,105.322 272.5,108C 274.774,110.325 275.941,113.159 276,116.5C 277.586,119.134 279.92,120.801 283,121.5C 281.799,124.565 282.632,127.065 285.5,129C 289.04,129.734 292.373,130.901 295.5,132.5C 296.308,132.192 296.975,131.692 297.5,131C 341.111,125.154 384.778,119.821 428.5,115C 452.16,113.001 475.827,111.167 499.5,109.5C 499.5,137.167 499.5,164.833 499.5,192.5C 474.871,192.912 450.204,193.579 425.5,194.5C 419.491,194.334 413.491,194.501 407.5,195C 405.942,195.21 404.609,195.71 403.5,196.5C 389.12,198.446 374.787,200.446 360.5,202.5C 357.169,204.298 353.502,204.964 349.5,204.5C 348.054,203.387 346.387,203.22 344.5,204C 341.489,204.743 338.822,206.076 336.5,208C 324.057,210.034 311.723,212.7 299.5,216C 290.829,220.838 281.829,224.838 272.5,228C 263.47,234.61 262.47,242.11 269.5,250.5C 269.291,251.086 268.957,251.586 268.5,252C 264.808,251.996 261.475,252.996 258.5,255C 254.235,262.755 254.902,270.088 260.5,277C 262.221,277.739 263.887,278.573 265.5,279.5C 264.48,281.432 264.313,283.432 265,285.5C 267.355,286.808 269.855,287.808 272.5,288.5C 270.253,289.245 268.42,290.578 267,292.5C 266.67,295.489 265.836,298.322 264.5,301C 266.774,303.325 267.941,306.159 268,309.5C 269.715,312.397 272.215,313.731 275.5,313.5C 273.429,317.454 274.429,320.287 278.5,322C 280.833,322.333 283.167,322.667 285.5,323C 286.047,323.925 286.713,324.758 287.5,325.5C 289.882,323.929 292.549,323.096 295.5,323C 342.204,317.287 388.871,311.787 435.5,306.5C 442.67,306.093 449.67,305.426 456.5,304.5C 470.788,302.982 485.121,302.315 499.5,302.5C 499.5,323.167 499.5,343.833 499.5,364.5C 455.618,363.972 411.952,366.638 368.5,372.5C 368.5,373.5 368.5,374.5 368.5,375.5C 364.7,376.46 359.033,376.793 351.5,376.5C 346.348,374.57 341.014,374.07 335.5,375C 334.207,377.052 333.207,379.219 332.5,381.5C 324.427,383.015 316.427,384.848 308.5,387C 300.284,390.941 291.951,394.608 283.5,398C 272.104,403.659 270.104,411.492 277.5,421.5C 277.291,422.086 276.957,422.586 276.5,423C 268.391,423.277 264.057,427.443 263.5,435.5C 264.511,439.208 265.677,442.874 267,446.5C 268.734,448.451 270.901,449.451 273.5,449.5C 271.055,456.066 273.388,459.399 280.5,459.5C 278.78,460.92 276.946,462.253 275,463.5C 274.67,466.489 273.836,469.322 272.5,472C 274.774,474.325 275.941,477.159 276,480.5C 277.586,483.134 279.92,484.801 283,485.5C 281.799,488.565 282.632,491.065 285.5,493C 289.04,493.734 292.373,494.901 295.5,496.5C 339.517,489.163 383.851,483.496 428.5,479.5C 431.187,479.336 433.854,479.503 436.5,480C 441.691,483.587 447.025,486.587 452.5,489C 449.303,484.638 445.637,480.805 441.5,477.5C 460.833,476.167 480.166,474.833 499.5,473.5C 499.5,482.167 499.5,490.833 499.5,499.5C 349.167,499.5 198.833,499.5 48.5,499.5C 57.5866,497.375 66.9199,496.042 76.5,495.5C 84.9975,495.039 93.3308,494.373 101.5,493.5C 102.833,493.5 104.167,493.5 105.5,493.5C 114.959,492.332 124.292,491.332 133.5,490.5C 135.5,490.5 137.5,490.5 139.5,490.5C 144.032,490.818 148.366,490.485 152.5,489.5C 156.112,488.578 159.779,487.911 163.5,487.5C 168.844,487.666 174.177,487.499 179.5,487C 183.133,486.851 186.466,486.018 189.5,484.5C 192.139,483.294 192.972,481.294 192,478.5C 189.959,477.577 187.792,477.244 185.5,477.5C 185.421,476.07 185.754,474.736 186.5,473.5C 192.472,472.67 198.472,472.17 204.5,472C 206.332,471.252 207.999,470.252 209.5,469C 215.748,470.056 222.081,470.389 228.5,470C 230.631,468.143 231.131,465.977 230,463.5C 231.734,462.751 233.567,462.251 235.5,462C 236.982,459.408 236.648,457.075 234.5,455C 231.447,454.821 228.447,454.321 225.5,453.5C 224.652,451.591 224.318,449.591 224.5,447.5C 220.074,447.141 219.407,445.307 222.5,442C 225.371,441.869 227.705,440.703 229.5,438.5C 231.599,440.52 233.933,440.854 236.5,439.5C 238.792,437.742 241.459,436.576 244.5,436C 247.79,433.892 248.123,431.559 245.5,429C 249.405,426.525 249.405,423.858 245.5,421C 241.564,420.997 237.897,420.164 234.5,418.5C 232.929,419.309 231.262,419.643 229.5,419.5C 229.33,418.178 229.663,417.011 230.5,416C 232.433,415.749 234.266,415.249 236,414.5C 236.483,413.552 236.649,412.552 236.5,411.5C 236.5,410.833 236.5,410.167 236.5,409.5C 236.417,404.436 233.75,402.102 228.5,402.5C 228.977,401.522 229.643,400.689 230.5,400C 230.167,399.667 229.833,399.333 229.5,399C 217.807,398.753 206.141,399.253 194.5,400.5C 194.598,398.447 193.931,396.78 192.5,395.5C 191.833,394.833 191.167,394.167 190.5,393.5C 191.573,392.749 191.74,391.749 191,390.5C 188.518,389.002 186.018,387.502 183.5,386C 177.843,385.501 172.176,385.334 166.5,385.5C 165.508,385.672 164.842,385.338 164.5,384.5C 166.379,384.607 166.712,384.107 165.5,383C 161.179,382.501 156.846,382.334 152.5,382.5C 151.081,381.549 149.415,381.216 147.5,381.5C 147.915,379.052 146.915,377.719 144.5,377.5C 137.915,379.264 131.249,380.597 124.5,381.5C 120.833,381.5 117.167,381.5 113.5,381.5C 114.263,380.732 115.263,380.232 116.5,380C 115,379.833 113.5,379.667 112,379.5C 102.732,380.866 93.5656,381.866 84.5,382.5C 56.5389,383.469 28.8722,386.302 1.5,391C 0.934056,391.995 0.267389,392.828 -0.5,393.5C -0.5,366.5 -0.5,339.5 -0.5,312.5C 21.1087,309.989 42.7754,307.656 64.5,305.5C 75.5221,314.589 88.1888,317.756 102.5,315C 112.14,313.526 119.806,309.026 125.5,301.5C 127.099,301.768 128.432,301.434 129.5,300.5C 133.14,299.727 136.807,299.06 140.5,298.5C 145.844,298.666 151.177,298.499 156.5,298C 160.133,297.851 163.466,297.018 166.5,295.5C 169.139,294.294 169.972,292.294 169,289.5C 166.959,288.577 164.792,288.244 162.5,288.5C 162.421,287.07 162.754,285.736 163.5,284.5C 169.472,283.67 175.472,283.17 181.5,283C 183.167,282 184.833,281 186.5,280C 192.748,281.056 199.081,281.389 205.5,281C 207.631,279.143 208.131,276.977 207,274.5C 209,273.833 211,273.167 213,272.5C 213.896,269.975 213.396,267.808 211.5,266C 208.447,265.821 205.447,265.321 202.5,264.5C 202.203,260.895 200.537,258.229 197.5,256.5C 198.04,255.252 198.707,254.085 199.5,253C 202.371,252.869 204.705,251.703 206.5,249.5C 207.688,250.84 209.188,251.507 211,251.5C 214.043,249.182 217.543,247.682 221.5,247C 224.362,245.214 225.028,242.881 223.5,240C 226.265,237.034 225.932,234.367 222.5,232C 218.564,231.997 214.897,231.164 211.5,229.5C 209.929,230.309 208.262,230.643 206.5,230.5C 206.33,229.178 206.663,228.011 207.5,227C 209.433,226.749 211.266,226.249 213,225.5C 213.483,224.552 213.649,223.552 213.5,222.5C 213.5,221.833 213.5,221.167 213.5,220.5C 213.822,218.278 213.155,216.444 211.5,215C 209.236,214.764 207.069,214.264 205,213.5C 204.689,212.258 205.189,211.258 206.5,210.5C 203.833,210.167 201.167,209.833 198.5,209.5C 189.515,210.415 180.515,211.082 171.5,211.5C 171.598,209.447 170.931,207.78 169.5,206.5C 168.833,205.833 168.167,205.167 167.5,204.5C 168.573,203.749 168.74,202.749 168,201.5C 165.518,200.002 163.018,198.502 160.5,197C 154.843,196.501 149.176,196.334 143.5,196.5C 142.508,196.672 141.842,196.338 141.5,195.5C 143.379,195.607 143.712,195.107 142.5,194C 137.845,193.501 133.179,193.334 128.5,193.5C 125.359,192.679 122.025,192.179 118.5,192C 116.044,190.289 113.377,188.956 110.5,188C 98.8233,186.057 87.1567,186.057 75.5,188C 71.9647,188.663 68.9647,190.163 66.5,192.5C 61.3634,193.068 56.3634,193.734 51.5,194.5C 48.8333,194.5 46.1667,194.5 43.5,194.5C 34.9319,194.102 26.5986,194.769 18.5,196.5C 15.1501,196.335 11.8168,196.502 8.5,197C 5.89343,199.105 2.89343,199.938 -0.5,199.5C -0.5,177.167 -0.5,154.833 -0.5,132.5C 14.3686,129.911 29.3686,127.911 44.5,126.5C 45.3764,126.369 46.0431,126.702 46.5,127.5C 50.4946,140.164 58.8279,144.331 71.5,140C 79.2543,136.039 86.421,131.206 93,125.5C 99.8737,132.027 107.707,137.194 116.5,141C 126.156,143.918 133.322,141.084 138,132.5C 139.542,127.955 140.376,123.289 140.5,118.5C 146.543,117.996 152.543,117.162 158.5,116C 161.785,110.42 160.118,107.92 153.5,108.5C 153.33,107.178 153.663,106.011 154.5,105C 159.833,104.667 165.167,104.333 170.5,104C 174.018,102.467 177.518,100.967 181,99.5C 186.043,101.288 191.21,101.788 196.5,101C 197.574,100.261 198.241,99.2613 198.5,98C 197.548,96.6996 197.548,95.533 198.5,94.5C 200.409,93.6518 202.409,93.3184 204.5,93.5C 205.134,86.3114 201.8,83.4781 194.5,85C 193.76,83.2151 193.093,81.3817 192.5,79.5C 191.675,78.6143 190.675,78.281 189.5,78.5C 189.215,76.712 189.548,75.0453 190.5,73.5C 193.276,72.9109 195.61,71.5776 197.5,69.5C 199.527,71.339 201.86,71.839 204.5,71C 206.645,68.782 209.312,67.4486 212.5,67C 215.859,64.9658 216.192,62.6324 213.5,60C 217.037,58.1735 217.371,55.8402 214.5,53C 210.514,52.2019 206.681,51.0352 203,49.5C 201.644,50.3802 200.144,50.7135 198.5,50.5C 198.5,49.5 198.5,48.5 198.5,47.5C 202.192,47.6757 204.192,46.0091 204.5,42.5C 193.833,42.1667 193.833,41.8333 204.5,41.5C 204.896,38.9556 204.229,36.7889 202.5,35C 199.957,34.8603 197.623,34.1937 195.5,33C 197.679,32.5581 198.345,31.5581 197.5,30C 185.821,29.9673 174.155,30.4673 162.5,31.5C 162.598,29.4471 161.931,27.7804 160.5,26.5C 159.833,25.8333 159.167,25.1667 158.5,24.5C 159.573,23.7494 159.74,22.7494 159,21.5C 153.35,16.9702 146.85,15.3035 139.5,16.5C 137.388,11.2206 133.722,7.38732 128.5,5C 119.163,3.94403 110.829,6.44403 103.5,12.5C 97.2045,13.2727 90.8712,13.2727 84.5,12.5C 79.2542,10.5438 74.2542,8.04378 69.5,5C 60.5779,2.47168 53.5779,4.97168 48.5,12.5C 46.3691,13.1687 44.3691,13.8354 42.5,14.5C 28.1185,15.0668 13.7852,16.0668 -0.5,17.5C -0.5,11.5 -0.5,5.5 -0.5,-0.5 Z"/></g>
<g><path style="opacity:1" fill="#fcbfb9" d="M 483.5,-0.5 C 488.833,-0.5 494.167,-0.5 499.5,-0.5C 499.5,36.1667 499.5,72.8333 499.5,109.5C 475.827,111.167 452.16,113.001 428.5,115C 384.778,119.821 341.111,125.154 297.5,131C 296.975,131.692 296.308,132.192 295.5,132.5C 292.373,130.901 289.04,129.734 285.5,129C 282.632,127.065 281.799,124.565 283,121.5C 279.92,120.801 277.586,119.134 276,116.5C 275.941,113.159 274.774,110.325 272.5,108C 273.836,105.322 274.67,102.489 275,99.5C 276.946,98.253 278.78,96.9197 280.5,95.5C 273.388,95.3994 271.055,92.0661 273.5,85.5C 270.383,85.3577 267.883,84.0244 266,81.5C 265.537,78.1641 264.704,74.9975 263.5,72C 263.82,63.6797 268.154,59.3463 276.5,59C 276.957,58.586 277.291,58.086 277.5,57.5C 270.754,50.3722 271.087,43.5389 278.5,37C 288.812,32.8418 298.812,28.1751 308.5,23C 323.034,19.7031 337.368,16.0364 351.5,12C 359.202,12.7812 364.868,12.6145 368.5,11.5C 368.5,10.5 368.5,9.5 368.5,8.5C 383.322,7.54449 397.989,5.71115 412.5,3C 436.332,1.94692 459.999,0.780251 483.5,-0.5 Z"/></g>
<g><path style="opacity:1" fill="#464748" d="M 84.5,12.5 C 84.3893,13.1174 84.056,13.6174 83.5,14C 86.6667,16.5 89.8333,19 93,21.5C 96.2922,18.1268 99.7922,15.1268 103.5,12.5C 110.829,6.44403 119.163,3.94403 128.5,5C 133.722,7.38732 137.388,11.2206 139.5,16.5C 141.001,27.3235 140.334,37.9901 137.5,48.5C 150.616,50.6355 161.116,56.9688 169,67.5C 171.047,76.5759 168.214,83.7426 160.5,89C 153.59,93.0197 146.423,96.5197 139,99.5C 139.891,105.751 140.391,112.084 140.5,118.5C 140.376,123.289 139.542,127.955 138,132.5C 133.322,141.084 126.156,143.918 116.5,141C 107.707,137.194 99.8737,132.027 93,125.5C 86.421,131.206 79.2543,136.039 71.5,140C 58.8279,144.331 50.4946,140.164 46.5,127.5C 46.0431,126.702 45.3764,126.369 44.5,126.5C 45.1878,117.17 46.1878,107.836 47.5,98.5C 35.3404,96.1765 25.507,90.1765 18,80.5C 14.6646,71.9528 16.4979,64.7862 23.5,59C 26.8333,56.6667 30.1667,54.3333 33.5,52C 38.1641,50.8897 42.6641,49.3897 47,47.5C 46.6957,40.6864 46.1957,33.8531 45.5,27C 45.3532,23.0051 46.0198,19.1718 47.5,15.5C 45.9547,14.5481 44.288,14.2148 42.5,14.5C 44.3691,13.8354 46.3691,13.1687 48.5,12.5C 53.5779,4.97168 60.5779,2.47168 69.5,5C 74.2542,8.04378 79.2542,10.5438 84.5,12.5 Z"/></g>
<g><path style="opacity:1" fill="#b8d6fa" d="M 56.5,13.5 C 69.5154,11.5095 79.8488,15.8428 87.5,26.5C 83.3088,31.5238 79.3088,36.6905 75.5,42C 68.4524,43.03 61.4524,44.1967 54.5,45.5C 53.7802,39.3458 53.1136,33.1791 52.5,27C 52.1343,21.9361 53.4676,17.4361 56.5,13.5 Z"/></g>
<g><path style="opacity:1" fill="#acc8e9" d="M 84.5,12.5 C 90.8712,13.2727 97.2045,13.2727 103.5,12.5C 99.7922,15.1268 96.2922,18.1268 93,21.5C 89.8333,19 86.6667,16.5 83.5,14C 84.056,13.6174 84.3893,13.1174 84.5,12.5 Z"/></g>
<g><path style="opacity:1" fill="#b7d5f9" d="M 115.5,13.5 C 120.567,14.4107 125.567,14.744 130.5,14.5C 130.291,15.086 129.957,15.586 129.5,16C 125.167,16.3333 120.833,16.6667 116.5,17C 121.864,17.1705 127.198,17.6705 132.5,18.5C 133.128,21.7797 133.461,25.113 133.5,28.5C 133.533,34.2745 132.866,39.9411 131.5,45.5C 124.852,44.6315 118.185,43.7982 111.5,43C 107.713,37.544 103.546,32.3774 99,27.5C 99.1953,25.255 100.362,23.4216 102.5,22C 106.59,18.6329 110.924,15.7995 115.5,13.5 Z"/></g>
<g><path style="opacity:1" fill="#bad9fd" d="M 42.5,14.5 C 44.288,14.2148 45.9547,14.5481 47.5,15.5C 46.0198,19.1718 45.3532,23.0051 45.5,27C 46.1957,33.8531 46.6957,40.6864 47,47.5C 42.6641,49.3897 38.1641,50.8897 33.5,52C 30.1667,54.3333 26.8333,56.6667 23.5,59C 16.4979,64.7862 14.6646,71.9528 18,80.5C 25.507,90.1765 35.3404,96.1765 47.5,98.5C 46.1878,107.836 45.1878,117.17 44.5,126.5C 29.3686,127.911 14.3686,129.911 -0.5,132.5C -0.5,94.1667 -0.5,55.8333 -0.5,17.5C 13.7852,16.0668 28.1185,15.0668 42.5,14.5 Z"/></g>
<g><path style="opacity:1" fill="#b8d6fb" d="M 139.5,16.5 C 146.85,15.3035 153.35,16.9702 159,21.5C 159.74,22.7494 159.573,23.7494 158.5,24.5C 156.473,24.3379 154.473,24.5045 152.5,25C 154.937,26.3747 157.603,26.8747 160.5,26.5C 161.931,27.7804 162.598,29.4471 162.5,31.5C 174.155,30.4673 185.821,29.9673 197.5,30C 198.345,31.5581 197.679,32.5581 195.5,33C 197.623,34.1937 199.957,34.8603 202.5,35C 204.229,36.7889 204.896,38.9556 204.5,41.5C 193.833,41.8333 193.833,42.1667 204.5,42.5C 204.192,46.0091 202.192,47.6757 198.5,47.5C 198.5,48.5 198.5,49.5 198.5,50.5C 200.144,50.7135 201.644,50.3802 203,49.5C 206.681,51.0352 210.514,52.2019 214.5,53C 217.371,55.8402 217.037,58.1735 213.5,60C 216.192,62.6324 215.859,64.9658 212.5,67C 209.312,67.4486 206.645,68.782 204.5,71C 201.86,71.839 199.527,71.339 197.5,69.5C 195.61,71.5776 193.276,72.9109 190.5,73.5C 189.548,75.0453 189.215,76.712 189.5,78.5C 190.675,78.281 191.675,78.6143 192.5,79.5C 193.093,81.3817 193.76,83.2151 194.5,85C 201.8,83.4781 205.134,86.3114 204.5,93.5C 202.409,93.3184 200.409,93.6518 198.5,94.5C 197.548,95.533 197.548,96.6996 198.5,98C 198.241,99.2613 197.574,100.261 196.5,101C 191.21,101.788 186.043,101.288 181,99.5C 177.518,100.967 174.018,102.467 170.5,104C 165.167,104.333 159.833,104.667 154.5,105C 153.663,106.011 153.33,107.178 153.5,108.5C 160.118,107.92 161.785,110.42 158.5,116C 152.543,117.162 146.543,117.996 140.5,118.5C 140.391,112.084 139.891,105.751 139,99.5C 146.423,96.5197 153.59,93.0197 160.5,89C 168.214,83.7426 171.047,76.5759 169,67.5C 161.116,56.9688 150.616,50.6355 137.5,48.5C 140.334,37.9901 141.001,27.3235 139.5,16.5 Z"/></g>
<g><path style="opacity:1" fill="#6a7992" d="M 158.5,24.5 C 159.167,25.1667 159.833,25.8333 160.5,26.5C 157.603,26.8747 154.937,26.3747 152.5,25C 154.473,24.5045 156.473,24.3379 158.5,24.5 Z"/></g>
<g><path style="opacity:1" fill="#b2cff2" d="M 91.5,32.5 C 94.9965,34.3132 97.9965,36.9799 100.5,40.5C 95.5,41.8333 90.5,41.8333 85.5,40.5C 87.9092,38.0976 89.9092,35.4309 91.5,32.5 Z"/></g>
<g><path style="opacity:1" fill="#87706f" d="M 286.5,37.5 C 351.665,36.5009 416.998,36.1675 482.5,36.5C 482.831,58.673 482.497,80.673 481.5,102.5C 481.5,80.8333 481.5,59.1667 481.5,37.5C 416.5,37.5 351.5,37.5 286.5,37.5 Z"/></g>
<g><path style="opacity:1" fill="#454545" d="M 286.5,37.5 C 351.5,37.5 416.5,37.5 481.5,37.5C 481.5,59.1667 481.5,80.8333 481.5,102.5C 449.167,102.5 416.833,102.5 384.5,102.5C 384.5,106.167 384.5,109.833 384.5,113.5C 369.833,113.5 355.167,113.5 340.5,113.5C 340.5,109.833 340.5,106.167 340.5,102.5C 322.5,102.5 304.5,102.5 286.5,102.5C 286.5,80.8333 286.5,59.1667 286.5,37.5 Z"/></g>
<g><path style="opacity:1" fill="#9c7f7b" d="M 471.5,91.5 C 471.5,77.1667 471.5,62.8333 471.5,48.5C 449.833,48.5 428.167,48.5 406.5,48.5C 406.5,62.8333 406.5,77.1667 406.5,91.5C 405.504,77.0095 405.171,62.3428 405.5,47.5C 427.833,47.5 450.167,47.5 472.5,47.5C 472.829,62.3428 472.496,77.0095 471.5,91.5 Z"/></g>
<g><path style="opacity:1" fill="#fdc0ba" d="M 351.5,48.5 C 365.833,48.5 380.167,48.5 394.5,48.5C 394.5,62.8333 394.5,77.1667 394.5,91.5C 387.5,91.5 380.5,91.5 373.5,91.5C 373.5,95.1667 373.5,98.8333 373.5,102.5C 366.167,102.5 358.833,102.5 351.5,102.5C 351.5,84.5 351.5,66.5 351.5,48.5 Z"/></g>
<g><path style="opacity:1" fill="#fcbfb9" d="M 471.5,91.5 C 467.833,91.5 464.167,91.5 460.5,91.5C 460.5,80.5 460.5,69.5 460.5,58.5C 456.833,58.5 453.167,58.5 449.5,58.5C 449.5,69.5 449.5,80.5 449.5,91.5C 446.167,91.5 442.833,91.5 439.5,91.5C 439.5,80.5 439.5,69.5 439.5,58.5C 435.5,58.5 431.5,58.5 427.5,58.5C 427.5,69.5 427.5,80.5 427.5,91.5C 420.5,91.5 413.5,91.5 406.5,91.5C 406.5,77.1667 406.5,62.8333 406.5,48.5C 428.167,48.5 449.833,48.5 471.5,48.5C 471.5,62.8333 471.5,77.1667 471.5,91.5 Z"/></g>
<g><path style="opacity:1" fill="#b6d4f8" d="M 79.5,48.5 C 88.5062,48.3336 97.5062,48.5002 106.5,49C 111.931,56.5239 116.597,64.5239 120.5,73C 116.597,81.4761 111.931,89.4761 106.5,97C 97.5,97.6667 88.5,97.6667 79.5,97C 74.0695,89.4761 69.4028,81.4761 65.5,73C 69.5393,64.4149 74.206,56.2482 79.5,48.5 Z"/></g>
<g><path style="opacity:1" fill="#aa8884" d="M 340.5,91.5 C 340.5,77.1667 340.5,62.8333 340.5,48.5C 326.167,48.5 311.833,48.5 297.5,48.5C 297.5,62.8333 297.5,77.1667 297.5,91.5C 296.504,77.0095 296.171,62.3428 296.5,47.5C 311.5,47.5 326.5,47.5 341.5,47.5C 341.829,62.3428 341.496,77.0095 340.5,91.5 Z"/></g>
<g><path style="opacity:1" fill="#fec0ba" d="M 340.5,91.5 C 337.167,91.5 333.833,91.5 330.5,91.5C 330.5,80.5 330.5,69.5 330.5,58.5C 326.5,58.5 322.5,58.5 318.5,58.5C 318.5,69.5 318.5,80.5 318.5,91.5C 311.5,91.5 304.5,91.5 297.5,91.5C 297.5,77.1667 297.5,62.8333 297.5,48.5C 311.833,48.5 326.167,48.5 340.5,48.5C 340.5,62.8333 340.5,77.1667 340.5,91.5 Z"/></g>
<g><path style="opacity:1" fill="#b4d1f4" d="M 116.5,51.5 C 120.307,50.9685 124.307,50.9685 128.5,51.5C 128.169,55.826 126.836,59.826 124.5,63.5C 121.823,59.4714 119.156,55.4714 116.5,51.5 Z"/></g>
<g><path style="opacity:1" fill="#b1cef0" d="M 61.5,50.5 C 64.2469,50.1866 66.9135,50.52 69.5,51.5C 66.8003,55.7042 64.3003,60.0375 62,64.5C 59.8088,60.4271 58.3088,56.0938 57.5,51.5C 59.099,51.7678 60.4324,51.4345 61.5,50.5 Z"/></g>
<g><path style="opacity:1" fill="#b8d6fa" d="M 47.5,54.5 C 48.8221,54.33 49.9887,54.6634 51,55.5C 52.7734,61.4878 54.9401,67.3211 57.5,73C 54.69,79.4517 52.0234,85.9517 49.5,92.5C 40.1757,89.7576 32.0091,85.0909 25,78.5C 23,74.8333 23,71.1667 25,67.5C 31.4604,61.1921 38.9604,56.8588 47.5,54.5 Z"/></g>
<g><path style="opacity:1" fill="#b9d7fb" d="M 135.5,54.5 C 145.18,56.5898 153.68,60.9232 161,67.5C 163.891,73.8969 162.391,79.0636 156.5,83C 150.453,86.5139 144.12,89.3472 137.5,91.5C 136.353,91.1822 135.519,90.5156 135,89.5C 133.029,83.9208 130.863,78.4208 128.5,73C 131.263,66.9773 133.597,60.8106 135.5,54.5 Z"/></g>
<g><path style="opacity:1" fill="#464647" d="M 86.5,59.5 C 101.154,57.6553 107.654,63.9887 106,78.5C 98.4855,89.6217 90.1522,90.2884 81,80.5C 77.6341,72.0332 79.4674,65.0332 86.5,59.5 Z"/></g>
<g><path style="opacity:1" fill="#bf9692" d="M 330.5,91.5 C 329.506,81.0131 329.172,70.3464 329.5,59.5C 326.167,59.5 322.833,59.5 319.5,59.5C 319.828,70.3464 319.494,81.0131 318.5,91.5C 318.5,80.5 318.5,69.5 318.5,58.5C 322.5,58.5 326.5,58.5 330.5,58.5C 330.5,69.5 330.5,80.5 330.5,91.5 Z"/></g>
<g><path style="opacity:1" fill="#957a77" d="M 383.5,80.5 C 383.5,73.5 383.5,66.5 383.5,59.5C 380.5,59.5 377.5,59.5 374.5,59.5C 374.5,66.5 374.5,73.5 374.5,80.5C 373.508,73.3524 373.175,66.0191 373.5,58.5C 377.167,58.5 380.833,58.5 384.5,58.5C 384.825,66.0191 384.492,73.3524 383.5,80.5 Z"/></g>
<g><path style="opacity:1" fill="#454444" d="M 383.5,80.5 C 380.5,80.5 377.5,80.5 374.5,80.5C 374.5,73.5 374.5,66.5 374.5,59.5C 377.5,59.5 380.5,59.5 383.5,59.5C 383.5,66.5 383.5,73.5 383.5,80.5 Z"/></g>
<g><path style="opacity:1" fill="#b7918d" d="M 439.5,91.5 C 438.506,81.0131 438.172,70.3464 438.5,59.5C 435.167,59.5 431.833,59.5 428.5,59.5C 428.828,70.3464 428.494,81.0131 427.5,91.5C 427.5,80.5 427.5,69.5 427.5,58.5C 431.5,58.5 435.5,58.5 439.5,58.5C 439.5,69.5 439.5,80.5 439.5,91.5 Z"/></g>
<g><path style="opacity:1" fill="#6a5d5c" d="M 460.5,91.5 C 459.506,81.0131 459.172,70.3464 459.5,59.5C 456.5,59.5 453.5,59.5 450.5,59.5C 450.828,70.3464 450.494,81.0131 449.5,91.5C 449.5,80.5 449.5,69.5 449.5,58.5C 453.167,58.5 456.833,58.5 460.5,58.5C 460.5,69.5 460.5,80.5 460.5,91.5 Z"/></g>
<g><path style="opacity:1" fill="#c19793" d="M 351.5,48.5 C 365.99,47.504 380.657,47.1707 395.5,47.5C 395.829,62.3428 395.496,77.0095 394.5,91.5C 394.5,77.1667 394.5,62.8333 394.5,48.5C 380.167,48.5 365.833,48.5 351.5,48.5 Z"/></g>
<g><path style="opacity:1" fill="#b0ccee" d="M 61.5,81.5 C 63.8905,85.9366 66.5572,90.27 69.5,94.5C 65.5065,95.6125 61.5065,95.6125 57.5,94.5C 58.0321,89.9048 59.3654,85.5715 61.5,81.5 Z"/></g>
<g><path style="opacity:1" fill="#b2cef0" d="M 123.5,82.5 C 124.75,82.5774 125.583,83.244 126,84.5C 127.727,87.6179 128.561,90.9513 128.5,94.5C 124.493,95.0037 120.493,95.1703 116.5,95C 119.226,91.0485 121.559,86.8818 123.5,82.5 Z"/></g>
<g><path style="opacity:1" fill="#b8d7fb" d="M 83.5,123.5 C 73.5373,124.681 63.5373,125.348 53.5,125.5C 52.1586,117.578 52.4919,109.578 54.5,101.5C 61.5014,102.25 68.5014,103.083 75.5,104C 79.3088,109.31 83.3088,114.476 87.5,119.5C 86.4787,121.188 85.1454,122.521 83.5,123.5 Z"/></g>
<g><path style="opacity:1" fill="#b8d6fa" d="M 128.5,119.5 C 124.384,119.541 120.384,120.207 116.5,121.5C 110.824,121.666 105.157,121.499 99.5,121C 98.5494,120.282 98.3828,119.449 99,118.5C 103.194,113.94 107.028,109.106 110.5,104C 117.536,102.892 124.536,101.725 131.5,100.5C 132.385,106.469 133.052,112.469 133.5,118.5C 131.585,118.216 129.919,118.549 128.5,119.5 Z"/></g>
<g><path style="opacity:1" fill="#b3d0f2" d="M 85.5,104.5 C 90.544,104.173 95.544,104.506 100.5,105.5C 98,108.5 95.5,111.5 93,114.5C 90.2386,111.286 87.7386,107.953 85.5,104.5 Z"/></g>
<g><path style="opacity:1" fill="#1c1d29" d="M 128.5,119.5 C 130.167,119.5 131.833,119.5 133.5,119.5C 133.893,130.949 128.559,135.783 117.5,134C 111.471,131.321 106.138,127.654 101.5,123C 106.684,122.826 111.684,122.326 116.5,121.5C 120.384,120.207 124.384,119.541 128.5,119.5 Z"/></g>
<g><path style="opacity:1" fill="#1f212d" d="M 83.5,123.5 C 76.7569,130.874 68.4236,134.374 58.5,134C 55.4044,131.971 53.7377,129.138 53.5,125.5C 63.5373,125.348 73.5373,124.681 83.5,123.5 Z"/></g>
<g><path style="opacity:1" fill="#444544" d="M 128.5,193.5 C 125.813,193.336 123.146,193.503 120.5,194C 122.102,195.935 123.269,198.101 124,200.5C 124.667,212.5 124.667,224.5 124,236.5C 122.167,242.333 118.333,246.167 112.5,248C 99.5,248.333 86.5,248.667 73.5,249C 66,251.167 61.1667,256 59,263.5C 58.5005,269.491 58.3338,275.491 58.5,281.5C 42.3333,285.174 33.1666,278.84 31,262.5C 28.5387,251.627 29.2053,240.96 33,230.5C 36.0431,225.123 40.5431,221.623 46.5,220C 62.1631,219.5 77.8298,219.333 93.5,219.5C 93.5,218.167 93.5,216.833 93.5,215.5C 83.1667,215.5 72.8333,215.5 62.5,215.5C 62.5,211.167 62.5,206.833 62.5,202.5C 64.2562,199.531 65.5896,196.198 66.5,192.5C 68.9647,190.163 71.9647,188.663 75.5,188C 87.1567,186.057 98.8233,186.057 110.5,188C 113.377,188.956 116.044,190.289 118.5,192C 122.025,192.179 125.359,192.679 128.5,193.5 Z"/></g>
<g><path style="opacity:1" fill="#5a766f" d="M 43.5,194.5 C 35.3558,195.678 27.0224,196.345 18.5,196.5C 26.5986,194.769 34.9319,194.102 43.5,194.5 Z"/></g>
<g><path style="opacity:1" fill="#5e597b" d="M 425.5,194.5 C 418.347,195.538 411.014,196.204 403.5,196.5C 404.609,195.71 405.942,195.21 407.5,195C 413.491,194.501 419.491,194.334 425.5,194.5 Z"/></g>
<g><path style="opacity:1" fill="#c9b9fc" d="M 499.5,192.5 C 499.5,229.167 499.5,265.833 499.5,302.5C 485.121,302.315 470.788,302.982 456.5,304.5C 450.491,304.334 444.491,304.501 438.5,305C 437.263,305.232 436.263,305.732 435.5,306.5C 388.871,311.787 342.204,317.287 295.5,323C 292.549,323.096 289.882,323.929 287.5,325.5C 286.713,324.758 286.047,323.925 285.5,323C 283.167,322.667 280.833,322.333 278.5,322C 274.429,320.287 273.429,317.454 275.5,313.5C 272.215,313.731 269.715,312.397 268,309.5C 267.941,306.159 266.774,303.325 264.5,301C 265.836,298.322 266.67,295.489 267,292.5C 268.42,290.578 270.253,289.245 272.5,288.5C 269.855,287.808 267.355,286.808 265,285.5C 264.313,283.432 264.48,281.432 265.5,279.5C 263.887,278.573 262.221,277.739 260.5,277C 254.902,270.088 254.235,262.755 258.5,255C 261.475,252.996 264.808,251.996 268.5,252C 268.957,251.586 269.291,251.086 269.5,250.5C 262.47,242.11 263.47,234.61 272.5,228C 281.829,224.838 290.829,220.838 299.5,216C 311.723,212.7 324.057,210.034 336.5,208C 338.822,206.076 341.489,204.743 344.5,204C 346.387,203.22 348.054,203.387 349.5,204.5C 353.981,205.648 358.648,205.815 363.5,205C 362.058,204.623 361.058,203.79 360.5,202.5C 374.787,200.446 389.12,198.446 403.5,196.5C 411.014,196.204 418.347,195.538 425.5,194.5C 450.204,193.579 474.871,192.912 499.5,192.5 Z"/></g>
<g><path style="opacity:1" fill="#b9fcd9" d="M 128.5,193.5 C 133.179,193.334 137.845,193.501 142.5,194C 143.712,195.107 143.379,195.607 141.5,195.5C 136.752,195.275 132.085,195.775 127.5,197C 133.016,197.817 138.35,197.651 143.5,196.5C 149.176,196.334 154.843,196.501 160.5,197C 163.018,198.502 165.518,200.002 168,201.5C 168.74,202.749 168.573,203.749 167.5,204.5C 165.712,204.215 164.045,204.548 162.5,205.5C 164.743,206.474 167.076,206.808 169.5,206.5C 170.931,207.78 171.598,209.447 171.5,211.5C 180.515,211.082 189.515,210.415 198.5,209.5C 201.167,209.833 203.833,210.167 206.5,210.5C 205.189,211.258 204.689,212.258 205,213.5C 207.069,214.264 209.236,214.764 211.5,215C 213.155,216.444 213.822,218.278 213.5,220.5C 204.334,221.799 204.334,222.466 213.5,222.5C 213.649,223.552 213.483,224.552 213,225.5C 211.266,226.249 209.433,226.749 207.5,227C 206.663,228.011 206.33,229.178 206.5,230.5C 208.262,230.643 209.929,230.309 211.5,229.5C 214.897,231.164 218.564,231.997 222.5,232C 225.932,234.367 226.265,237.034 223.5,240C 225.028,242.881 224.362,245.214 221.5,247C 217.543,247.682 214.043,249.182 211,251.5C 209.188,251.507 207.688,250.84 206.5,249.5C 204.705,251.703 202.371,252.869 199.5,253C 198.707,254.085 198.04,255.252 197.5,256.5C 200.537,258.229 202.203,260.895 202.5,264.5C 205.447,265.321 208.447,265.821 211.5,266C 213.396,267.808 213.896,269.975 213,272.5C 211,273.167 209,273.833 207,274.5C 208.131,276.977 207.631,279.143 205.5,281C 199.081,281.389 192.748,281.056 186.5,280C 184.833,281 183.167,282 181.5,283C 175.472,283.17 169.472,283.67 163.5,284.5C 162.754,285.736 162.421,287.07 162.5,288.5C 164.792,288.244 166.959,288.577 169,289.5C 169.972,292.294 169.139,294.294 166.5,295.5C 157.693,296.505 149.026,297.505 140.5,298.5C 136.807,299.06 133.14,299.727 129.5,300.5C 127.833,300.5 126.167,300.5 124.5,300.5C 124.5,295.5 124.5,290.5 124.5,285.5C 114.167,285.5 103.833,285.5 93.5,285.5C 93.5,284.167 93.5,282.833 93.5,281.5C 110.503,281.667 127.503,281.5 144.5,281C 147.583,280.214 149.749,278.381 151,275.5C 158.901,260.178 159.567,244.511 153,228.5C 150.778,224.612 147.612,221.779 143.5,220C 138.177,219.501 132.844,219.334 127.5,219.5C 127.666,225.842 127.5,232.175 127,238.5C 125.053,246.114 120.22,250.614 112.5,252C 99.8333,252.333 87.1667,252.667 74.5,253C 68.6667,254.833 64.8333,258.667 63,264.5C 62.3333,276.5 62.3333,288.5 63,300.5C 63.6077,302.154 64.1077,303.821 64.5,305.5C 42.7754,307.656 21.1087,309.989 -0.5,312.5C -0.5,274.833 -0.5,237.167 -0.5,199.5C 2.89343,199.938 5.89343,199.105 8.5,197C 11.8168,196.502 15.1501,196.335 18.5,196.5C 27.0224,196.345 35.3558,195.678 43.5,194.5C 46.1667,194.5 48.8333,194.5 51.5,194.5C 55.5,194.5 59.5,194.5 63.5,194.5C 62.9084,197.127 62.5751,199.794 62.5,202.5C 62.5,206.833 62.5,211.167 62.5,215.5C 72.8333,215.5 83.1667,215.5 93.5,215.5C 93.5,216.833 93.5,218.167 93.5,219.5C 77.8298,219.333 62.1631,219.5 46.5,220C 40.5431,221.623 36.0431,225.123 33,230.5C 29.2053,240.96 28.5387,251.627 31,262.5C 33.1666,278.84 42.3333,285.174 58.5,281.5C 58.3338,275.491 58.5005,269.491 59,263.5C 61.1667,256 66,251.167 73.5,249C 86.5,248.667 99.5,248.333 112.5,248C 118.333,246.167 122.167,242.333 124,236.5C 124.667,224.5 124.667,212.5 124,200.5C 123.269,198.101 122.102,195.935 120.5,194C 123.146,193.503 125.813,193.336 128.5,193.5 Z"/></g>
<g><path style="opacity:1" fill="#5a6963" d="M 66.5,192.5 C 65.5896,196.198 64.2562,199.531 62.5,202.5C 62.5751,199.794 62.9084,197.127 63.5,194.5C 59.5,194.5 55.5,194.5 51.5,194.5C 56.3634,193.734 61.3634,193.068 66.5,192.5 Z"/></g>
<g><path style="opacity:1" fill="#b5f6d4" d="M 73.5,195.5 C 79.873,195.368 82.373,198.368 81,204.5C 77.714,208.485 74.3807,208.485 71,204.5C 69.9271,200.9 70.7605,197.9 73.5,195.5 Z"/></g>
<g><path style="opacity:1" fill="#66867c" d="M 141.5,195.5 C 141.842,196.338 142.508,196.672 143.5,196.5C 138.35,197.651 133.016,197.817 127.5,197C 132.085,195.775 136.752,195.275 141.5,195.5 Z"/></g>
<g><path style="opacity:1" fill="#6c9083" d="M 167.5,204.5 C 168.167,205.167 168.833,205.833 169.5,206.5C 167.076,206.808 164.743,206.474 162.5,205.5C 164.045,204.548 165.712,204.215 167.5,204.5 Z"/></g>
<g><path style="opacity:1" fill="#595474" d="M 360.5,202.5 C 361.058,203.79 362.058,204.623 363.5,205C 358.648,205.815 353.981,205.648 349.5,204.5C 353.502,204.964 357.169,204.298 360.5,202.5 Z"/></g>
<g><path style="opacity:1" fill="#444544" d="M 93.5,285.5 C 103.319,286.494 113.319,286.827 123.5,286.5C 122.892,291.944 123.558,296.944 125.5,301.5C 119.806,309.026 112.14,313.526 102.5,315C 88.1888,317.756 75.5221,314.589 64.5,305.5C 64.1077,303.821 63.6077,302.154 63,300.5C 62.3333,288.5 62.3333,276.5 63,264.5C 64.8333,258.667 68.6667,254.833 74.5,253C 87.1667,252.667 99.8333,252.333 112.5,252C 120.22,250.614 125.053,246.114 127,238.5C 127.5,232.175 127.666,225.842 127.5,219.5C 132.844,219.334 138.177,219.501 143.5,220C 147.612,221.779 150.778,224.612 153,228.5C 159.567,244.511 158.901,260.178 151,275.5C 149.749,278.381 147.583,280.214 144.5,281C 127.503,281.5 110.503,281.667 93.5,281.5C 93.5,282.833 93.5,284.167 93.5,285.5 Z"/></g>
<g><path style="opacity:1" fill="#506763" d="M 213.5,220.5 C 213.5,221.167 213.5,221.833 213.5,222.5C 204.334,222.466 204.334,221.799 213.5,220.5 Z"/></g>
<g><path style="opacity:1" fill="#474748" d="M 389.5,224.5 C 392.852,225.008 395.852,226.342 398.5,228.5C 399.666,242.488 399.833,256.488 399,270.5C 394.241,273.586 389.241,276.253 384,278.5C 379.102,275.967 374.269,273.301 369.5,270.5C 368.336,264.528 368.17,258.528 369,252.5C 373.084,249.874 377.25,247.374 381.5,245C 384.14,244.161 386.473,244.661 388.5,246.5C 389.497,239.197 389.831,231.863 389.5,224.5 Z"/></g>
<g><path style="opacity:1" fill="#49494b" d="M 300.5,243.5 C 306.048,245.607 311.381,248.274 316.5,251.5C 317.497,259.138 317.831,266.804 317.5,274.5C 314.148,273.992 311.148,272.658 308.5,270.5C 307.833,266.167 307.167,261.833 306.5,257.5C 303.624,254.92 300.79,254.92 298,257.5C 297.667,261.5 297.333,265.5 297,269.5C 293.938,272.115 290.438,273.781 286.5,274.5C 286.169,266.804 286.503,259.138 287.5,251.5C 292.065,249.059 296.398,246.392 300.5,243.5 Z"/></g>
<g><path style="opacity:1" fill="#464647" d="M 341.5,243.5 C 347.048,245.607 352.381,248.274 357.5,251.5C 358.833,257.833 358.833,264.167 357.5,270.5C 352.731,273.301 347.898,275.967 343,278.5C 338.102,275.967 333.269,273.301 328.5,270.5C 327.336,264.528 327.17,258.528 328,252.5C 332.824,249.849 337.324,246.849 341.5,243.5 Z"/></g>
<g><path style="opacity:1" fill="#48484a" d="M 423.5,243.5 C 428.715,245.441 433.715,247.941 438.5,251C 440.619,253.218 440.952,255.718 439.5,258.5C 436.749,260.293 433.916,261.959 431,263.5C 430.413,256.547 427.079,254.547 421,257.5C 420.333,259.833 420.333,262.167 421,264.5C 425.584,267.208 430.084,270.042 434.5,273C 431.399,274.966 428.232,276.8 425,278.5C 420.102,275.967 415.269,273.301 410.5,270.5C 409.336,264.528 409.17,258.528 410,252.5C 414.824,249.849 419.324,246.849 423.5,243.5 Z"/></g>
<g><path style="opacity:1" fill="#535159" d="M 464.5,243.5 C 470.394,245.196 475.894,247.863 481,251.5C 481.831,257.859 481.664,264.193 480.5,270.5C 475.731,273.301 470.898,275.967 466,278.5C 463.942,277.888 462.109,276.888 460.5,275.5C 463.057,275.218 465.723,275.051 468.5,275C 472.084,272.959 475.584,270.792 479,268.5C 479.829,263.136 479.663,257.802 478.5,252.5C 474.414,250.04 470.247,247.707 466,245.5C 462.076,248.213 457.909,250.547 453.5,252.5C 452.337,257.802 452.171,263.136 453,268.5C 454.897,270.016 457.064,270.683 459.5,270.5C 459.5,265.167 459.5,259.833 459.5,254.5C 460.5,254.5 461.5,254.5 462.5,254.5C 462.666,260.176 462.499,265.843 462,271.5C 457.847,274.338 454.18,273.672 451,269.5C 450.17,263.472 450.336,257.472 451.5,251.5C 455.873,248.772 460.206,246.105 464.5,243.5 Z"/></g>
<g><path style="opacity:1" fill="#c3b4f4" d="M 382.5,255.5 C 388.843,255.999 390.843,259.166 388.5,265C 383.362,267.931 380.362,266.598 379.5,261C 379.685,258.624 380.685,256.791 382.5,255.5 Z"/></g>
<g><path style="opacity:1" fill="#515056" d="M 422.5,258.5 C 424.199,258.34 425.866,258.506 427.5,259C 428.813,262.692 427.48,264.359 423.5,264C 422.594,262.301 422.261,260.467 422.5,258.5 Z"/></g>
<g><path style="opacity:1" fill="#535159" d="M 465.5,254.5 C 468.777,254.216 471.943,254.549 475,255.5C 475.749,256.635 475.583,257.635 474.5,258.5C 472.063,256.424 469.397,256.091 466.5,257.5C 469.355,259.352 472.522,260.686 476,261.5C 477.178,266.661 475.012,268.995 469.5,268.5C 467.088,268.594 465.255,267.594 464,265.5C 463.409,264.517 463.743,263.85 465,263.5C 468.124,265.907 471.291,266.073 474.5,264C 470.722,263.174 467.222,261.674 464,259.5C 463.387,257.505 463.887,255.838 465.5,254.5 Z"/></g>
<g><path style="opacity:1" fill="#789687" d="M 93.5,285.5 C 103.833,285.5 114.167,285.5 124.5,285.5C 124.5,290.5 124.5,295.5 124.5,300.5C 126.167,300.5 127.833,300.5 129.5,300.5C 128.432,301.434 127.099,301.768 125.5,301.5C 123.558,296.944 122.892,291.944 123.5,286.5C 113.319,286.827 103.319,286.494 93.5,285.5 Z"/></g>
<g><path style="opacity:1" fill="#b2f1d1" d="M 108.5,293.5 C 114.167,293.167 116.833,295.833 116.5,301.5C 112.5,301.5 108.5,301.5 104.5,301.5C 104.343,300.127 104.51,298.793 105,297.5C 106.376,296.295 107.542,294.962 108.5,293.5 Z"/></g>
<g><path style="opacity:1" fill="#85b39f" d="M 166.5,295.5 C 163.466,297.018 160.133,297.851 156.5,298C 151.177,298.499 145.844,298.666 140.5,298.5C 149.026,297.505 157.693,296.505 166.5,295.5 Z"/></g>
<g><path style="opacity:1" fill="#9086b8" d="M 456.5,304.5 C 449.67,305.426 442.67,306.093 435.5,306.5C 436.263,305.732 437.263,305.232 438.5,305C 444.491,304.501 450.491,304.334 456.5,304.5 Z"/></g>
<g><path style="opacity:1" fill="#fdbaf3" d="M 499.5,364.5 C 499.5,400.833 499.5,437.167 499.5,473.5C 480.166,474.833 460.833,476.167 441.5,477.5C 438.176,475.833 435.176,473.666 432.5,471C 433.328,470.085 434.328,469.419 435.5,469C 451.064,468.683 452.398,464.349 439.5,456C 432.745,452.208 426.245,448.041 420,443.5C 414.745,433.99 409.745,424.324 405,414.5C 395.95,400.887 384.117,390.387 369.5,383C 362.707,382.648 356.707,380.482 351.5,376.5C 359.033,376.793 364.7,376.46 368.5,375.5C 368.5,374.5 368.5,373.5 368.5,372.5C 411.952,366.638 455.618,363.972 499.5,364.5 Z"/></g>
<g><path style="opacity:1" fill="#484847" d="M 152.5,382.5 C 150.517,382.157 149.183,382.824 148.5,384.5C 148.328,385.492 148.662,386.158 149.5,386.5C 150.566,388.701 151.233,391.035 151.5,393.5C 140.949,390.401 130.282,387.568 119.5,385C 119.167,384.667 118.833,384.333 118.5,384C 120.723,383.434 122.723,382.6 124.5,381.5C 131.249,380.597 137.915,379.264 144.5,377.5C 146.915,377.719 147.915,379.052 147.5,381.5C 149.415,381.216 151.081,381.549 152.5,382.5 Z"/></g>
<g><path style="opacity:1" fill="#fdb9f2" d="M 428.5,479.5 C 383.851,483.496 339.517,489.163 295.5,496.5C 292.373,494.901 289.04,493.734 285.5,493C 282.632,491.065 281.799,488.565 283,485.5C 279.92,484.801 277.586,483.134 276,480.5C 275.941,477.159 274.774,474.325 272.5,472C 273.836,469.322 274.67,466.489 275,463.5C 276.946,462.253 278.78,460.92 280.5,459.5C 273.388,459.399 271.055,456.066 273.5,449.5C 270.901,449.451 268.734,448.451 267,446.5C 265.677,442.874 264.511,439.208 263.5,435.5C 264.057,427.443 268.391,423.277 276.5,423C 276.957,422.586 277.291,422.086 277.5,421.5C 270.104,411.492 272.104,403.659 283.5,398C 291.951,394.608 300.284,390.941 308.5,387C 316.427,384.848 324.427,383.015 332.5,381.5C 335.202,384.518 337.702,387.851 340,391.5C 343.955,400.707 348.288,409.707 353,418.5C 352.194,424.425 351.361,430.425 350.5,436.5C 350.584,443.992 352.917,450.658 357.5,456.5C 360.342,459.283 362.842,458.95 365,455.5C 366.092,452.956 366.759,450.289 367,447.5C 370.625,453.06 374.958,458.06 380,462.5C 376.007,454.187 371.674,445.854 367,437.5C 363.597,441.521 361.43,446.188 360.5,451.5C 359.132,452.594 357.965,452.26 357,450.5C 355.205,446.023 354.372,441.357 354.5,436.5C 355.468,429.843 355.968,423.176 356,416.5C 352.135,409.435 348.802,402.102 346,394.5C 342.405,389.977 339.905,384.977 338.5,379.5C 344.394,378.943 349.727,380.443 354.5,384C 375.301,387.8 390.801,398.967 401,417.5C 405.745,427.324 410.745,436.99 416,446.5C 422.721,450.446 429.554,454.279 436.5,458C 438.976,459.309 440.976,461.142 442.5,463.5C 437.072,464.559 431.739,465.892 426.5,467.5C 425.417,468.365 425.251,469.365 426,470.5C 428.5,473 431,475.5 433.5,478C 431.618,478.198 429.952,478.698 428.5,479.5 Z"/></g>
<g><path style="opacity:1" fill="#474746" d="M 113.5,381.5 C 108.532,382.164 103.532,382.664 98.5,383C 100.874,383.848 102.874,385.181 104.5,387C 102.47,391.561 100.303,396.061 98,400.5C 89.5,408.333 81,416.167 72.5,424C 64.5519,428.558 56.3853,432.724 48,436.5C 45.5,435.333 43.6667,433.5 42.5,431C 44.9224,426.244 47.7557,421.744 51,417.5C 63.5472,402.941 78.3805,391.441 95.5,383C 91.8484,382.501 88.1817,382.335 84.5,382.5C 93.5656,381.866 102.732,380.866 112,379.5C 113.5,379.667 115,379.833 116.5,380C 115.263,380.232 114.263,380.732 113.5,381.5 Z"/></g>
<g><path style="opacity:1" fill="#effab8" d="M 113.5,381.5 C 117.167,381.5 120.833,381.5 124.5,381.5C 122.723,382.6 120.723,383.434 118.5,384C 118.833,384.333 119.167,384.667 119.5,385C 130.282,387.568 140.949,390.401 151.5,393.5C 151.233,391.035 150.566,388.701 149.5,386.5C 155.358,386.822 161.025,386.489 166.5,385.5C 172.176,385.334 177.843,385.501 183.5,386C 186.018,387.502 188.518,389.002 191,390.5C 191.74,391.749 191.573,392.749 190.5,393.5C 188.712,393.215 187.045,393.548 185.5,394.5C 187.743,395.474 190.076,395.808 192.5,395.5C 193.931,396.78 194.598,398.447 194.5,400.5C 206.141,399.253 217.807,398.753 229.5,399C 229.833,399.333 230.167,399.667 230.5,400C 229.643,400.689 228.977,401.522 228.5,402.5C 233.75,402.102 236.417,404.436 236.5,409.5C 227.334,410.799 227.334,411.466 236.5,411.5C 236.649,412.552 236.483,413.552 236,414.5C 234.266,415.249 232.433,415.749 230.5,416C 229.663,417.011 229.33,418.178 229.5,419.5C 231.262,419.643 232.929,419.309 234.5,418.5C 237.897,420.164 241.564,420.997 245.5,421C 249.405,423.858 249.405,426.525 245.5,429C 248.123,431.559 247.79,433.892 244.5,436C 241.459,436.576 238.792,437.742 236.5,439.5C 233.933,440.854 231.599,440.52 229.5,438.5C 227.705,440.703 225.371,441.869 222.5,442C 219.407,445.307 220.074,447.141 224.5,447.5C 224.318,449.591 224.652,451.591 225.5,453.5C 228.447,454.321 231.447,454.821 234.5,455C 236.648,457.075 236.982,459.408 235.5,462C 233.567,462.251 231.734,462.751 230,463.5C 231.131,465.977 230.631,468.143 228.5,470C 222.081,470.389 215.748,470.056 209.5,469C 207.999,470.252 206.332,471.252 204.5,472C 198.472,472.17 192.472,472.67 186.5,473.5C 185.754,474.736 185.421,476.07 185.5,477.5C 187.792,477.244 189.959,477.577 192,478.5C 192.972,481.294 192.139,483.294 189.5,484.5C 180.693,485.505 172.026,486.505 163.5,487.5C 159.779,487.911 156.112,488.578 152.5,489.5C 151.167,489.5 149.833,489.5 148.5,489.5C 148.5,486.5 148.5,483.5 148.5,480.5C 149.402,452.469 150.568,424.469 152,396.5C 141.303,412.365 130.803,428.365 120.5,444.5C 129.178,459.194 137.845,473.861 146.5,488.5C 145.652,489.625 144.652,489.625 143.5,488.5C 135.222,474.23 126.555,460.23 117.5,446.5C 100.33,457.251 83.3298,468.251 66.5,479.5C 90.7835,483.207 115.117,486.541 139.5,489.5C 139.5,489.833 139.5,490.167 139.5,490.5C 137.5,490.5 135.5,490.5 133.5,490.5C 126.786,490.27 120.12,489.603 113.5,488.5C 97.5125,486.621 81.5125,484.788 65.5,483C 57.8333,482.333 50.1667,482.333 42.5,483C 63.1731,485.318 83.8398,487.485 104.5,489.5C 107.977,490.323 111.644,490.823 115.5,491C 111.821,491.026 108.488,491.86 105.5,493.5C 104.167,493.5 102.833,493.5 101.5,493.5C 94.1591,493.334 86.8258,493.5 79.5,494C 78.2625,494.232 77.2625,494.732 76.5,495.5C 66.9199,496.042 57.5866,497.375 48.5,499.5C 32.1667,499.5 15.8333,499.5 -0.5,499.5C -0.5,464.167 -0.5,428.833 -0.5,393.5C 0.267389,392.828 0.934056,391.995 1.5,391C 28.8722,386.302 56.5389,383.469 84.5,382.5C 88.1817,382.335 91.8484,382.501 95.5,383C 78.3805,391.441 63.5472,402.941 51,417.5C 47.7557,421.744 44.9224,426.244 42.5,431C 43.6667,433.5 45.5,435.333 48,436.5C 56.3853,432.724 64.5519,428.558 72.5,424C 81,416.167 89.5,408.333 98,400.5C 100.303,396.061 102.47,391.561 104.5,387C 102.874,385.181 100.874,383.848 98.5,383C 103.532,382.664 108.532,382.164 113.5,381.5 Z"/></g>
<g><path style="opacity:1" fill="#d5dda7" d="M 152.5,382.5 C 156.846,382.334 161.179,382.501 165.5,383C 166.712,384.107 166.379,384.607 164.5,384.5C 159.067,384.92 153.733,384.92 148.5,384.5C 149.183,382.824 150.517,382.157 152.5,382.5 Z"/></g>
<g><path style="opacity:1" fill="#7b816a" d="M 148.5,384.5 C 153.733,384.92 159.067,384.92 164.5,384.5C 164.842,385.338 165.508,385.672 166.5,385.5C 161.025,386.489 155.358,386.822 149.5,386.5C 148.662,386.158 148.328,385.492 148.5,384.5 Z"/></g>
<g><path style="opacity:1" fill="#4a4a48" d="M 139.5,393.5 C 133.675,395.348 127.675,397.014 121.5,398.5C 115.733,398.31 110.066,398.977 104.5,400.5C 103.833,400.167 103.167,399.833 102.5,399.5C 104.5,395.5 106.5,391.5 108.5,387.5C 109.333,387.167 110.167,386.833 111,386.5C 120.46,389.073 129.96,391.407 139.5,393.5 Z"/></g>
<g><path style="opacity:1" fill="#878e72" d="M 190.5,393.5 C 191.167,394.167 191.833,394.833 192.5,395.5C 190.076,395.808 187.743,395.474 185.5,394.5C 187.045,393.548 188.712,393.215 190.5,393.5 Z"/></g>
<g><path style="opacity:1" fill="#bac294" d="M 139.5,393.5 C 141.048,393.821 141.715,394.821 141.5,396.5C 134.786,396.73 128.12,397.397 121.5,398.5C 127.675,397.014 133.675,395.348 139.5,393.5 Z"/></g>
<g><path style="opacity:1" fill="#484846" d="M 138.5,397.5 C 141.187,397.336 143.854,397.503 146.5,398C 137.525,412.129 128.192,425.963 118.5,439.5C 112.719,427.822 107.719,415.822 103.5,403.5C 115.384,402.02 127.051,400.02 138.5,397.5 Z"/></g>
<g><path style="opacity:1" fill="#464645" d="M 148.5,480.5 C 147.833,483.167 147.167,485.833 146.5,488.5C 137.845,473.861 129.178,459.194 120.5,444.5C 130.803,428.365 141.303,412.365 152,396.5C 150.568,424.469 149.402,452.469 148.5,480.5 Z"/></g>
<g><path style="opacity:1" fill="#4b494b" d="M 351.5,376.5 C 356.707,380.482 362.707,382.648 369.5,383C 384.117,390.387 395.95,400.887 405,414.5C 409.745,424.324 414.745,433.99 420,443.5C 426.245,448.041 432.745,452.208 439.5,456C 452.398,464.349 451.064,468.683 435.5,469C 434.328,469.419 433.328,470.085 432.5,471C 435.176,473.666 438.176,475.833 441.5,477.5C 445.637,480.805 449.303,484.638 452.5,489C 447.025,486.587 441.691,483.587 436.5,480C 433.854,479.503 431.187,479.336 428.5,479.5C 429.952,478.698 431.618,478.198 433.5,478C 431,475.5 428.5,473 426,470.5C 425.251,469.365 425.417,468.365 426.5,467.5C 431.739,465.892 437.072,464.559 442.5,463.5C 440.976,461.142 438.976,459.309 436.5,458C 429.554,454.279 422.721,450.446 416,446.5C 410.745,436.99 405.745,427.324 401,417.5C 390.801,398.967 375.301,387.8 354.5,384C 349.727,380.443 344.394,378.943 338.5,379.5C 339.905,384.977 342.405,389.977 346,394.5C 348.802,402.102 352.135,409.435 356,416.5C 355.968,423.176 355.468,429.843 354.5,436.5C 354.372,441.357 355.205,446.023 357,450.5C 357.965,452.26 359.132,452.594 360.5,451.5C 361.43,446.188 363.597,441.521 367,437.5C 371.674,445.854 376.007,454.187 380,462.5C 374.958,458.06 370.625,453.06 367,447.5C 366.759,450.289 366.092,452.956 365,455.5C 362.842,458.95 360.342,459.283 357.5,456.5C 352.917,450.658 350.584,443.992 350.5,436.5C 351.361,430.425 352.194,424.425 353,418.5C 348.288,409.707 343.955,400.707 340,391.5C 337.702,387.851 335.202,384.518 332.5,381.5C 333.207,379.219 334.207,377.052 335.5,375C 341.014,374.07 346.348,374.57 351.5,376.5 Z"/></g>
<g><path style="opacity:1" fill="#474846" d="M 98.5,404.5 C 100.335,405.122 101.502,406.456 102,408.5C 105.976,418.764 110.142,428.931 114.5,439C 101.226,435.927 88.2261,431.76 75.5,426.5C 83.1872,419.145 90.8539,411.812 98.5,404.5 Z"/></g>
<g><path style="opacity:1" fill="#5b6053" d="M 236.5,409.5 C 236.5,410.167 236.5,410.833 236.5,411.5C 227.334,411.466 227.334,410.799 236.5,409.5 Z"/></g>
<g><path style="opacity:1" fill="#474846" d="M 73.5,430.5 C 87.2313,434.633 100.898,438.966 114.5,443.5C 97.3298,454.251 80.3298,465.251 63.5,476.5C 66.5834,461.423 69.9167,446.09 73.5,430.5 Z"/></g>
<g><path style="opacity:1" fill="#484847" d="M 69.5,429.5 C 70.0967,429.735 70.4301,430.235 70.5,431C 66.9284,443.787 63.595,456.62 60.5,469.5C 56.5423,460.463 52.8757,451.296 49.5,442C 49.6448,441.228 49.9781,440.561 50.5,440C 56.8955,436.472 63.2288,432.972 69.5,429.5 Z"/></g>
<g><path style="opacity:1" fill="#52534e" d="M 39.5,435.5 C 42.2719,436.436 44.2719,438.27 45.5,441C 41.8046,450.224 37.9713,459.391 34,468.5C 35.2431,457.444 37.0764,446.444 39.5,435.5 Z"/></g>
<g><path style="opacity:1" fill="#474746" d="M 143.5,488.5 C 142.432,489.434 141.099,489.768 139.5,489.5C 115.117,486.541 90.7835,483.207 66.5,479.5C 83.3298,468.251 100.33,457.251 117.5,446.5C 126.555,460.23 135.222,474.23 143.5,488.5 Z"/></g>
<g><path style="opacity:1" fill="#484847" d="M 46.5,446.5 C 48.1361,447.749 49.3028,449.416 50,451.5C 53.6707,460.347 56.8374,469.347 59.5,478.5C 50.8269,478.666 42.1603,478.5 33.5,478C 37.9751,467.551 42.3085,457.051 46.5,446.5 Z"/></g>
<g><path style="opacity:1" fill="#5e5f56" d="M 113.5,488.5 C 110.713,489.477 107.713,489.81 104.5,489.5C 83.8398,487.485 63.1731,485.318 42.5,483C 50.1667,482.333 57.8333,482.333 65.5,483C 81.5125,484.788 97.5125,486.621 113.5,488.5 Z"/></g>
<g><path style="opacity:1" fill="#b3bc8f" d="M 189.5,484.5 C 186.466,486.018 183.133,486.851 179.5,487C 174.177,487.499 168.844,487.666 163.5,487.5C 172.026,486.505 180.693,485.505 189.5,484.5 Z"/></g>
<g><path style="opacity:1" fill="#a7ad87" d="M 148.5,480.5 C 148.5,483.5 148.5,486.5 148.5,489.5C 149.833,489.5 151.167,489.5 152.5,489.5C 148.366,490.485 144.032,490.818 139.5,490.5C 139.5,490.167 139.5,489.833 139.5,489.5C 141.099,489.768 142.432,489.434 143.5,488.5C 144.652,489.625 145.652,489.625 146.5,488.5C 147.167,485.833 147.833,483.167 148.5,480.5 Z"/></g>
<g><path style="opacity:1" fill="#a3a984" d="M 113.5,488.5 C 120.12,489.603 126.786,490.27 133.5,490.5C 124.292,491.332 114.959,492.332 105.5,493.5C 108.488,491.86 111.821,491.026 115.5,491C 111.644,490.823 107.977,490.323 104.5,489.5C 107.713,489.81 110.713,489.477 113.5,488.5 Z"/></g>
<g><path style="opacity:1" fill="#aeb68c" d="M 101.5,493.5 C 93.3308,494.373 84.9975,495.039 76.5,495.5C 77.2625,494.732 78.2625,494.232 79.5,494C 86.8258,493.5 94.1591,493.334 101.5,493.5 Z"/></g>
</svg>
